<svg xmlns="http://www.w3.org/2000/svg" class="landscape" width="412" height="210" viewBox="0,0,412,210"><style type="text/css">
text, tspan {
	font-family: -apple-system,BlinkMacSystemFont,Segoe UI,Helvetica,Arial,sans-serif,Apple Color Emoji,Segoe UI Emoji;
}

</style><defs><linearGradient id="linearPrimary" gradientTransform="rotate(90)"><stop offset="0%" stop-color="#163951"></stop><stop offset="100%" stop-color="#597282"></stop></linearGradient><linearGradient id="linearSecondary" gradientTransform="rotate(90)"><stop offset="0%" stop-color="#a2b0b9"></stop><stop offset="100%" stop-color="#16384e"></stop></linearGradient><linearGradient id="linearLight" gradientTransform="rotate(90)"><stop offset="0%" stop-color="#758a96"></stop><stop offset="100%" stop-color="#abb8c0"></stop></linearGradient><radialGradient id="radialPrimary"><stop offset="0%" stop-color="#597282"></stop><stop offset="100%" stop-color="#163951"></stop></radialGradient><radialGradient id="radialSecondary"><stop offset="0%" stop-color="#16384e"></stop><stop offset="100%" stop-color="#a2b0b9"></stop></radialGradient><radialGradient id="radialLight"><stop offset="0%" stop-color="#abb8c0"></stop><stop offset="100%" stop-color="#758a96"></stop></radialGradient><mask id="mask" maskContentUnits="objectBoundingBox"><circle cx="0.5" cy="0.5" r="0.5" fill="#fff"></circle></mask></defs><rect x="0" y="0" rx="5" ry="5" width="412" height="210" fill="#f6f8fa" stroke="none"></rect><text fill="#000" font-size="18" x="20" y="29">Timeline</text><rect fill="#e1e4e8" x="20" y="39" width="372" height="1"></rect><g transform="translate(0 20)"><g transform="translate(0,160)" fill="none" font-size="10" font-family="sans-serif" text-anchor="middle"><path class="domain" stroke="currentColor" d="M40.5,0.5H192.5"></path></g><rect x="44.5" y="50" width="1" height="110" stroke="none" fill="#ccc"></rect><text x="49.5" y="60" stroke="none" fill="#ccc" font-family="-apple-system,BlinkMacSystemFont,Segoe UI,Helvetica,Arial,sans-serif,Apple Color Emoji,Segoe UI Emoji" font-size="12">2025</text><g fill="#163951"><rect x="45" y="60" width="11" height="100"></rect><rect x="69" y="154.50851180669963" width="11" height="5.491488193300384"></rect><rect x="81" y="151.76276771004945" width="11" height="8.237232289950569"></rect><rect x="93" y="157.25425590334982" width="11" height="2.745744096650185"></rect><rect x="165" y="157.25425590334982" width="11" height="2.745744096650185"></rect><rect x="177" y="151.76276771004945" width="11" height="8.237232289950569"></rect></g><g fill="red"><rect x="45" y="60" width="11" height="0"></rect><rect x="69" y="146.27127951674902" width="11" height="8.237232289950597"></rect><rect x="177" y="149.0170236133992" width="11" height="2.7457440966502134"></rect></g><g fill="#a2b0b9"><rect x="45" y="60" width="11" height="0"></rect><rect x="69" y="143.52553542009883" width="11" height="2.745744096650185"></rect><rect x="81" y="146.27127951674902" width="11" height="5.4914881933004125"></rect><rect x="93" y="154.50851180669963" width="11" height="2.745744096650199"></rect><rect x="165" y="154.50851180669963" width="11" height="2.745744096650199"></rect><rect x="177" y="146.27127951674902" width="11" height="2.745744096650199"></rect></g></g><g><rect stroke="#000" stroke-width="1" fill="#163951" x="232" y="60" width="8" height="8"></rect><g stroke="none" fill="#000" font-family="-apple-system,BlinkMacSystemFont,Segoe UI,Helvetica,Arial,sans-serif,Apple Color Emoji,Segoe UI Emoji" font-size="12"><text x="247" y="68" font-weight="bold">48 commits</text><text x="244" y="86">+19 this year (241 total)</text></g><rect stroke="#000" stroke-width="1" fill="red" x="232" y="104" width="8" height="8"></rect><g stroke="none" fill="#000" font-family="-apple-system,BlinkMacSystemFont,Segoe UI,Helvetica,Arial,sans-serif,Apple Color Emoji,Segoe UI Emoji" font-size="12"><text x="247" y="112" font-weight="bold">6 issues</text><text x="244" y="130">-7 this year (29 total)</text></g><rect stroke="#000" stroke-width="1" fill="#a2b0b9" x="232" y="148" width="8" height="8"></rect><g stroke="none" fill="#000" font-family="-apple-system,BlinkMacSystemFont,Segoe UI,Helvetica,Arial,sans-serif,Apple Color Emoji,Segoe UI Emoji" font-size="12"><text x="247" y="156" font-weight="bold">11 pull requests</text><text x="244" y="174">-6 this year (57 total)</text></g></g></svg>