<svg baseProfile="full" height="400" version="1.1" width="800" xmlns="http://www.w3.org/2000/svg" xmlns:ev="http://www.w3.org/2001/xml-events" xmlns:xlink="http://www.w3.org/1999/xlink"><defs/><rect fill="#000000" fill-opacity="0.0" height="400" rx="20" ry="20" width="800" x="0" y="0"/><text fill="#cdd6f4" fill-opacity="1" style="font-size: 20px; font-family: Arial" text-anchor="middle" x="400.0" y="30.0">Zhuang's Repo Traffic Stats</text><line stroke="#414868" stroke-opacity="1" x1="60" x2="750" y1="320" y2="320"/><line stroke="#414868" stroke-opacity="1" x1="60" x2="60" y1="60" y2="320"/><line opacity="0.5" stroke="#414868" stroke-dasharray="5,5" stroke-opacity="1" stroke-width="1" x1="60" x2="750" y1="320.0" y2="320.0"/><text fill="#cdd6f4" fill-opacity="1" style="font-size: 12px; font-family: Arial" text-anchor="end" x="50" y="325.0">0</text><line opacity="0.5" stroke="#414868" stroke-dasharray="5,5" stroke-opacity="1" stroke-width="1" x1="60" x2="750" y1="268.0" y2="268.0"/><text fill="#cdd6f4" fill-opacity="1" style="font-size: 12px; font-family: Arial" text-anchor="end" x="50" y="273.0">10</text><line opacity="0.5" stroke="#414868" stroke-dasharray="5,5" stroke-opacity="1" stroke-width="1" x1="60" x2="750" y1="216.0" y2="216.0"/><text fill="#cdd6f4" fill-opacity="1" style="font-size: 12px; font-family: Arial" text-anchor="end" x="50" y="221.0">20</text><line opacity="0.5" stroke="#414868" stroke-dasharray="5,5" stroke-opacity="1" stroke-width="1" x1="60" x2="750" y1="164.0" y2="164.0"/><text fill="#cdd6f4" fill-opacity="1" style="font-size: 12px; font-family: Arial" text-anchor="end" x="50" y="169.0">30</text><line opacity="0.5" stroke="#414868" stroke-dasharray="5,5" stroke-opacity="1" stroke-width="1" x1="60" x2="750" y1="112.0" y2="112.0"/><text fill="#cdd6f4" fill-opacity="1" style="font-size: 12px; font-family: Arial" text-anchor="end" x="50" y="117.0">40</text><line opacity="0.5" stroke="#414868" stroke-dasharray="5,5" stroke-opacity="1" stroke-width="1" x1="60" x2="750" y1="60.0" y2="60.0"/><text fill="#cdd6f4" fill-opacity="1" style="font-size: 12px; font-family: Arial" text-anchor="end" x="50" y="65.0">50</text><line opacity="0.5" stroke="#414868" stroke-dasharray="5,5" stroke-opacity="1" stroke-width="1" x1="60.0" x2="60.0" y1="60" y2="320"/><line opacity="0.5" stroke="#414868" stroke-dasharray="5,5" stroke-opacity="1" stroke-width="1" x1="109.28571428571428" x2="109.28571428571428" y1="60" y2="320"/><line opacity="0.5" stroke="#414868" stroke-dasharray="5,5" stroke-opacity="1" stroke-width="1" x1="158.57142857142856" x2="158.57142857142856" y1="60" y2="320"/><line opacity="0.5" stroke="#414868" stroke-dasharray="5,5" stroke-opacity="1" stroke-width="1" x1="207.85714285714286" x2="207.85714285714286" y1="60" y2="320"/><line opacity="0.5" stroke="#414868" stroke-dasharray="5,5" stroke-opacity="1" stroke-width="1" x1="257.1428571428571" x2="257.1428571428571" y1="60" y2="320"/><line opacity="0.5" stroke="#414868" stroke-dasharray="5,5" stroke-opacity="1" stroke-width="1" x1="306.42857142857144" x2="306.42857142857144" y1="60" y2="320"/><line opacity="0.5" stroke="#414868" stroke-dasharray="5,5" stroke-opacity="1" stroke-width="1" x1="355.7142857142857" x2="355.7142857142857" y1="60" y2="320"/><line opacity="0.5" stroke="#414868" stroke-dasharray="5,5" stroke-opacity="1" stroke-width="1" x1="405.0" x2="405.0" y1="60" y2="320"/><line opacity="0.5" stroke="#414868" stroke-dasharray="5,5" stroke-opacity="1" stroke-width="1" x1="454.2857142857143" x2="454.2857142857143" y1="60" y2="320"/><line opacity="0.5" stroke="#414868" stroke-dasharray="5,5" stroke-opacity="1" stroke-width="1" x1="503.57142857142856" x2="503.57142857142856" y1="60" y2="320"/><line opacity="0.5" stroke="#414868" stroke-dasharray="5,5" stroke-opacity="1" stroke-width="1" x1="552.8571428571429" x2="552.8571428571429" y1="60" y2="320"/><line opacity="0.5" stroke="#414868" stroke-dasharray="5,5" stroke-opacity="1" stroke-width="1" x1="602.1428571428571" x2="602.1428571428571" y1="60" y2="320"/><line opacity="0.5" stroke="#414868" stroke-dasharray="5,5" stroke-opacity="1" stroke-width="1" x1="651.4285714285714" x2="651.4285714285714" y1="60" y2="320"/><line opacity="0.5" stroke="#414868" stroke-dasharray="5,5" stroke-opacity="1" stroke-width="1" x1="700.7142857142857" x2="700.7142857142857" y1="60" y2="320"/><line opacity="0.5" stroke="#414868" stroke-dasharray="5,5" stroke-opacity="1" stroke-width="1" x1="750.0" x2="750.0" y1="60" y2="320"/><circle cx="60.0" cy="320.0" fill="#8aadf4" fill-opacity="1" r="4"/><circle cx="109.28571428571428" cy="288.8" fill="#8aadf4" fill-opacity="1" r="4"/><circle cx="158.57142857142856" cy="314.8" fill="#8aadf4" fill-opacity="1" r="4"/><circle cx="207.85714285714286" cy="304.4" fill="#8aadf4" fill-opacity="1" r="4"/><circle cx="257.1428571428571" cy="294.0" fill="#8aadf4" fill-opacity="1" r="4"/><circle cx="306.42857142857144" cy="320.0" fill="#8aadf4" fill-opacity="1" r="4"/><circle cx="355.7142857142857" cy="304.4" fill="#8aadf4" fill-opacity="1" r="4"/><circle cx="405.0" cy="288.8" fill="#8aadf4" fill-opacity="1" r="4"/><circle cx="454.2857142857143" cy="309.6" fill="#8aadf4" fill-opacity="1" r="4"/><circle cx="503.57142857142856" cy="304.4" fill="#8aadf4" fill-opacity="1" r="4"/><circle cx="552.8571428571429" cy="283.6" fill="#8aadf4" fill-opacity="1" r="4"/><circle cx="602.1428571428571" cy="314.8" fill="#8aadf4" fill-opacity="1" r="4"/><circle cx="651.4285714285714" cy="96.4" fill="#8aadf4" fill-opacity="1" r="4"/><circle cx="700.7142857142857" cy="143.2" fill="#8aadf4" fill-opacity="1" r="4"/><circle cx="750.0" cy="236.8" fill="#8aadf4" fill-opacity="1" r="4"/><path d="M 60.0,320.0 C 76.42857142857143,320.0 92.85714285714285,288.8 109.28571428571428,288.8 C 125.71428571428571,288.8 142.14285714285714,314.8 158.57142857142856,314.8 C 175.0,314.8 191.42857142857142,304.4 207.85714285714286,304.4 C 224.28571428571428,304.4 240.7142857142857,294.0 257.1428571428571,294.0 C 273.57142857142856,294.0 290.0,320.0 306.42857142857144,320.0 C 322.8571428571429,320.0 339.2857142857143,304.4 355.7142857142857,304.4 C 372.14285714285717,304.4 388.57142857142856,288.8 405.0,288.8 C 421.42857142857144,288.8 437.85714285714283,309.6 454.2857142857143,309.6 C 470.7142857142857,309.6 487.1428571428571,304.4 503.57142857142856,304.4 C 520.0,304.4 536.4285714285714,283.6 552.8571428571429,283.6 C 569.2857142857143,283.6 585.7142857142857,314.8 602.1428571428571,314.8 C 618.5714285714286,314.8 635.0,96.4 651.4285714285714,96.4 C 667.8571428571429,96.4 684.2857142857142,143.2 700.7142857142857,143.2 C 717.1428571428571,143.2 733.5714285714286,236.8 750.0,236.8" fill="none" stroke="#8aadf4" stroke-dasharray="1001.4460615668216" stroke-dashoffset="1001.4460615668216" stroke-linecap="round" stroke-linejoin="round" stroke-opacity="0.4" stroke-width="4"><animate attributeName="stroke-dashoffset" dur="2s" fill="freeze" from="1001.4460615668216" repeatCount="1" to="0"/></path><circle cx="60.0" cy="294.0" fill="#cba6f7" fill-opacity="1" r="4"/><circle cx="109.28571428571428" cy="294.0" fill="#cba6f7" fill-opacity="1" r="4"/><circle cx="158.57142857142856" cy="236.8" fill="#cba6f7" fill-opacity="1" r="4"/><circle cx="207.85714285714286" cy="242.0" fill="#cba6f7" fill-opacity="1" r="4"/><circle cx="257.1428571428571" cy="200.39999999999998" fill="#cba6f7" fill-opacity="1" r="4"/><circle cx="306.42857142857144" cy="247.2" fill="#cba6f7" fill-opacity="1" r="4"/><circle cx="355.7142857142857" cy="304.4" fill="#cba6f7" fill-opacity="1" r="4"/><circle cx="405.0" cy="304.4" fill="#cba6f7" fill-opacity="1" r="4"/><circle cx="454.2857142857143" cy="252.39999999999998" fill="#cba6f7" fill-opacity="1" r="4"/><circle cx="503.57142857142856" cy="304.4" fill="#cba6f7" fill-opacity="1" r="4"/><circle cx="552.8571428571429" cy="268.0" fill="#cba6f7" fill-opacity="1" r="4"/><circle cx="602.1428571428571" cy="247.2" fill="#cba6f7" fill-opacity="1" r="4"/><circle cx="651.4285714285714" cy="169.2" fill="#cba6f7" fill-opacity="1" r="4"/><circle cx="700.7142857142857" cy="221.2" fill="#cba6f7" fill-opacity="1" r="4"/><circle cx="750.0" cy="278.4" fill="#cba6f7" fill-opacity="1" r="4"/><path d="M 60.0,294.0 C 76.42857142857143,294.0 92.85714285714285,294.0 109.28571428571428,294.0 C 125.71428571428571,294.0 142.14285714285714,236.8 158.57142857142856,236.8 C 175.0,236.8 191.42857142857142,242.0 207.85714285714286,242.0 C 224.28571428571428,242.0 240.7142857142857,200.39999999999998 257.1428571428571,200.39999999999998 C 273.57142857142856,200.39999999999998 290.0,247.2 306.42857142857144,247.2 C 322.8571428571429,247.2 339.2857142857143,304.4 355.7142857142857,304.4 C 372.14285714285717,304.4 388.57142857142856,304.4 405.0,304.4 C 421.42857142857144,304.4 437.85714285714283,252.39999999999998 454.2857142857143,252.39999999999998 C 470.7142857142857,252.39999999999998 487.1428571428571,304.4 503.57142857142856,304.4 C 520.0,304.4 536.4285714285714,268.0 552.8571428571429,268.0 C 569.2857142857143,268.0 585.7142857142857,247.2 602.1428571428571,247.2 C 618.5714285714286,247.2 635.0,169.2 651.4285714285714,169.2 C 667.8571428571429,169.2 684.2857142857142,221.2 700.7142857142857,221.2 C 717.1428571428571,221.2 733.5714285714286,278.4 750.0,278.4" fill="none" stroke="#cba6f7" stroke-dasharray="951.7927927646507" stroke-dashoffset="951.7927927646507" stroke-linecap="round" stroke-linejoin="round" stroke-opacity="0.4" stroke-width="4"><animate attributeName="stroke-dashoffset" dur="2s" fill="freeze" from="951.7927927646507" repeatCount="1" to="0"/></path><text fill="#cdd6f4" fill-opacity="1" style="font-size: 12px; font-family: Arial" transform="rotate(45, 60.0, 340)" x="60.0" y="340">05</text><text fill="#cdd6f4" fill-opacity="1" style="font-size: 12px; font-family: Arial" transform="rotate(45, 109.28571428571428, 340)" x="109.28571428571428" y="340">06</text><text fill="#cdd6f4" fill-opacity="1" style="font-size: 12px; font-family: Arial" transform="rotate(45, 158.57142857142856, 340)" x="158.57142857142856" y="340">07</text><text fill="#cdd6f4" fill-opacity="1" style="font-size: 12px; font-family: Arial" transform="rotate(45, 207.85714285714286, 340)" x="207.85714285714286" y="340">08</text><text fill="#cdd6f4" fill-opacity="1" style="font-size: 12px; font-family: Arial" transform="rotate(45, 257.1428571428571, 340)" x="257.1428571428571" y="340">09</text><text fill="#cdd6f4" fill-opacity="1" style="font-size: 12px; font-family: Arial" transform="rotate(45, 306.42857142857144, 340)" x="306.42857142857144" y="340">10</text><text fill="#cdd6f4" fill-opacity="1" style="font-size: 12px; font-family: Arial" transform="rotate(45, 355.7142857142857, 340)" x="355.7142857142857" y="340">11</text><text fill="#cdd6f4" fill-opacity="1" style="font-size: 12px; font-family: Arial" transform="rotate(45, 405.0, 340)" x="405.0" y="340">12</text><text fill="#cdd6f4" fill-opacity="1" style="font-size: 12px; font-family: Arial" transform="rotate(45, 454.2857142857143, 340)" x="454.2857142857143" y="340">13</text><text fill="#cdd6f4" fill-opacity="1" style="font-size: 12px; font-family: Arial" transform="rotate(45, 503.57142857142856, 340)" x="503.57142857142856" y="340">14</text><text fill="#cdd6f4" fill-opacity="1" style="font-size: 12px; font-family: Arial" transform="rotate(45, 552.8571428571429, 340)" x="552.8571428571429" y="340">15</text><text fill="#cdd6f4" fill-opacity="1" style="font-size: 12px; font-family: Arial" transform="rotate(45, 602.1428571428571, 340)" x="602.1428571428571" y="340">16</text><text fill="#cdd6f4" fill-opacity="1" style="font-size: 12px; font-family: Arial" transform="rotate(45, 651.4285714285714, 340)" x="651.4285714285714" y="340">17</text><text fill="#cdd6f4" fill-opacity="1" style="font-size: 12px; font-family: Arial" transform="rotate(45, 700.7142857142857, 340)" x="700.7142857142857" y="340">18</text><text fill="#cdd6f4" fill-opacity="1" style="font-size: 12px; font-family: Arial" transform="rotate(45, 750.0, 340)" x="750.0" y="340">19</text><text fill="#cdd6f4" fill-opacity="1" style="font-size: 14px; font-family: Arial" text-anchor="middle" x="400.0" y="373.3333333333333">Days</text><text fill="#cdd6f4" fill-opacity="1" style="font-size: 14px; font-family: Arial" text-anchor="middle" transform="rotate(-90, 20.0, 200.0)" x="20.0" y="200.0">Count</text><line stroke="#8aadf4" stroke-opacity="0.4" stroke-width="3" x1="340.0" x2="360.0" y1="388.3333333333333" y2="388.3333333333333"/><text fill="#cdd6f4" fill-opacity="1" style="font-size: 12px; font-family: Arial" x="370.0" y="393.3333333333333">Clones</text><line stroke="#cba6f7" stroke-opacity="0.4" stroke-width="3" x1="440.0" x2="460.0" y1="388.3333333333333" y2="388.3333333333333"/><text fill="#cdd6f4" fill-opacity="1" style="font-size: 12px; font-family: Arial" x="470.0" y="393.3333333333333">Views</text></svg>